<svg xmlns="http://www.w3.org/2000/svg" viewBox="0 0 278.8 94.1" style="fill:#fff;">    
    <path d="M256.7 23c11.8 12.2 11.9 31.6.2 44.1l21.9-21.9L256.7 23z"></path>
    <circle cx="272.2" cy="45.2" r="3.4"></circle>
    <path d="M273.6 44.4c0 .3-.1.5-.2.7-.2.2-.4.3-.7.4l1.2 1.6h-.9l-1.1-1.5h-.5v1.5h-.7v-4H272.5c.2 0 .3.1.4.1.2.1.4.2.5.4.2.4.2.6.2.8zm-1.8.7h.4c.1 0 .2 0 .3-.1.1-.1.2-.1.3-.2.1-.1.1-.2.1-.3 0-.1 0-.2-.1-.3 0-.1-.1-.1-.2-.2-.1 0-.2-.1-.3-.1h-.9v1.2h.4zM234.5.9c11.8 12.2 11.9 31.6.2 44.1l22-22L234.5.9zM234.8 44.9c11.8 12.2 11.9 31.6.2 44.1l21.9-21.9-22.1-22.2zM212.6 22.8c11.8 12.2 11.9 31.6.2 44.1L234.7 45l-22.1-22.2z"></path>
    <g>
        <path d="M14.2 3.2H8.6v19.5h-3V3.2H0V.9h14.2v2.3zM30.5.9h3v21.8h-3V6.8h-.1l-8.3 15.9h-3V.9h3v15.9h.1L30.5.9zM54.5 22.7h-3V3.2h-8.4v19.5h-3V.9h14.4v21.8zM74.9 14.8c0 2.6-.7 4.6-2 6S69.8 23 67.5 23c-2.2 0-4-.7-5.3-2.2-1.3-1.4-2-3.5-2-6v-6c0-2.6.7-4.6 2-6.1S65.3.5 67.5.5c2.2 0 4 .7 5.4 2.2 1.3 1.5 2 3.5 2 6.1v6zm-3-6c0-1.9-.4-3.3-1.1-4.3S68.9 3 67.5 3s-2.4.5-3.1 1.5c-.7 1-1.1 2.4-1.1 4.3v6c0 1.9.4 3.4 1.1 4.4.7 1 1.8 1.5 3.1 1.5 1.4 0 2.5-.5 3.2-1.5.8-1 1.1-2.4 1.1-4.4v-6zM92.4 3.2h-8.6v19.5h-3V.9h11.7v2.3zM100.7 14.1v8.6h-3V.9h7.2c2 0 3.6.6 4.8 1.8 1.2 1.2 1.7 2.8 1.7 4.8s-.6 3.6-1.7 4.8c-1.2 1.2-2.8 1.8-4.8 1.8h-4.2zm0-2.3h4.1c1.1 0 2-.4 2.6-1.2.6-.8.9-1.8.9-3s-.3-2.3-.9-3.1c-.6-.8-1.5-1.2-2.6-1.2h-4.1v8.5zM124.8 17.2h-7l-1.6 5.5h-3.1L119.8.9h2.9l6.7 21.8h-3.1l-1.5-5.5zm-6.3-2.4h5.6l-2.7-9.5h-.1l-2.8 9.5zM144.1 3h.2c2.2 0 4.1.8 5.5 2.5 1.5 1.6 2.2 3.8 2.2 6.3 0 2.6-.7 4.7-2.2 6.3-1.5 1.6-3.3 2.5-5.5 2.5h-.2v3h-3v-3h-.2c-2.2 0-4.1-.8-5.5-2.4-1.4-1.6-2.2-3.7-2.2-6.3s.7-4.7 2.2-6.3c1.4-1.7 3.3-2.5 5.5-2.5h.2V0h3v3zm-3.2 2.4c-1.5 0-2.6.6-3.4 1.8-.8 1.2-1.2 2.7-1.2 4.7s.4 3.5 1.2 4.7c.8 1.1 2 1.7 3.4 1.7h.2V5.4h-.2zm3.2 0v12.8h.2c1.4 0 2.6-.6 3.4-1.7.8-1.2 1.3-2.7 1.3-4.7 0-1.9-.4-3.5-1.2-4.7-.8-1.2-2-1.7-3.4-1.7h-.3zM168.7.9h3v21.8h-3V6.8h-.1l-8.3 15.9h-3V.9h3v15.9h.1L168.7.9zM180 22.7h-3.3l4.2-9.5c-1.1-.6-1.9-1.3-2.5-2.3-.6-1-.8-2.1-.8-3.5 0-2.1.6-3.7 1.8-4.9 1.2-1.2 2.8-1.7 4.9-1.7h6.1v21.8h-3v-8.5h-3.7l-3.7 8.6zm7.4-19.5h-3.1c-1.2 0-2.1.4-2.7 1.1-.6.8-.9 1.8-.9 3.2 0 1.3.3 2.4.9 3.2.6.8 1.5 1.2 2.6 1.2h3.1V3.2zM31.1 33.9h3v21.8h-3V39.8H31l-8.3 15.9h-3V33.9h3v15.9h.1l8.3-15.9zM55.1 55.8h-3v-9.6h-8.4v9.6h-3V33.9h3v9.9h8.4v-9.9h3v21.9zM78.6 61.1h-2.8v-5.3H63.5v5.3h-2.7l-.3-7.6H62c.6-.7 1.2-1.9 1.8-3.7.5-1.8.8-4.2.9-7.3l.5-8.5h11.5v19.5H79l-.4 7.6zM67.7 42.4c-.1 2.5-.4 4.7-.8 6.6-.5 1.9-1.1 3.4-1.8 4.5h8.5V36.2H68l-.3 6.2zM89.8 44.7l.5 1.6h.1l4-12.3h3.3l-6.4 18c-.6 1.3-1.2 2.3-1.8 3.1-.7.7-1.6 1.1-2.9 1.1h-.7c-.3 0-.5-.1-.6-.1v-2.2c.1 0 .2.1.5.1h.6c.6 0 1.1-.2 1.4-.6.3-.4.6-1 .9-1.9l.4-1.2-6.4-16.2H86l3.8 10.6zM115.4 49.1c0 2.3-.5 4-1.7 5.1s-2.8 1.8-4.9 1.8c-2.1 0-3.8-.7-5.1-2.2-1.3-1.4-1.9-3.4-1.9-6v-6.1c0-2.6.6-4.6 1.9-6 1.3-1.4 2.9-2.2 5.1-2.2 2.1 0 3.8.6 4.9 1.8s1.7 2.9 1.8 5.1v.1h-2.9c0-1.6-.3-2.8-.9-3.5-.6-.8-1.5-1.1-2.8-1.1-1.2 0-2.2.5-2.9 1.5-.7 1-1 2.5-1 4.3v6.1c0 1.9.4 3.4 1.1 4.4.7 1 1.7 1.5 3 1.5s2.2-.4 2.8-1.1c.6-.7.9-1.9.9-3.5h2.6zM133.2 36.2h-5.6v19.5h-3V36.2H119v-2.3h14.2v2.3zM141.2 47.1v8.6h-3V33.9h7.2c2 0 3.6.6 4.8 1.8 1.2 1.2 1.7 2.8 1.7 4.8s-.6 3.6-1.7 4.8c-1.2 1.2-2.8 1.8-4.8 1.8h-4.2zm0-2.3h4.1c1.1 0 2-.4 2.6-1.2.6-.8.9-1.8.9-3s-.3-2.3-.9-3.1c-.6-.8-1.5-1.2-2.6-1.2h-4.1v8.5zM168.7 33.9h3v21.8h-3V39.8h-.1l-8.3 15.9h-3V33.9h3v15.9h.1l8.3-15.9zM180 55.8h-3.3l4.2-9.5c-1.1-.6-1.9-1.3-2.5-2.3-.6-1-.8-2.1-.8-3.5 0-2.1.6-3.7 1.8-4.9 1.2-1.2 2.8-1.7 4.9-1.7h6.1v21.8h-3v-8.5h-3.7l-3.7 8.6zm7.4-19.6h-3.1c-1.2 0-2.1.4-2.7 1.1-.6.8-.9 1.8-.9 3.2 0 1.3.3 2.4.9 3.2.6.8 1.5 1.2 2.6 1.2h3.1v-8.7zM102.2 67h3v19.5h8.3V67h3v19.5h2.2l-.2 7.6h-2.8v-5.3h-13.6V67zM124.2 88.8V67h6.1c2.1 0 3.7.5 4.8 1.5 1.2 1 1.7 2.4 1.7 4.4 0 1-.3 2-.8 2.7-.5.8-1.3 1.4-2.2 1.7 1.2.3 2.1.9 2.7 1.9.6 1 1 2.1 1 3.4 0 2-.6 3.5-1.7 4.6-1.1 1.1-2.7 1.6-4.7 1.6h-6.9zm3-12.4h3.3c1 0 1.8-.3 2.4-.9.6-.6.9-1.5.9-2.6 0-1.2-.3-2.1-.9-2.7-.6-.6-1.5-.9-2.6-.9h-3v7.1zm0 2.2v7.9h3.9c1.1 0 1.9-.3 2.5-1 .6-.7.9-1.6.9-2.9 0-1.2-.3-2.2-.7-2.9-.5-.7-1.3-1.1-2.3-1.1h-4.3zM154.4 78.7h-8.1v7.8h9.4v2.3h-12.4V67h12.3v2.3h-9.3v7.1h8.1v2.3zM173.8 69.3h-5.6v19.5h-3V69.3h-5.6V67h14.2v2.3zM187.4 83.3h-7l-1.6 5.5h-3.1l6.7-21.8h2.9l6.7 21.8h-3l-1.6-5.5zm-6.2-2.4h5.6l-2.7-9.5h-.1l-2.8 9.5z"></path>
    </g>
</svg>