<svg id="Слой_1" xmlns="http://www.w3.org/2000/svg" viewBox="0 0 168 164.9"><style>.st5{fill:#004884}</style><path fill="#4ca9f6" d="M40.2 121.5L15 133.9l71 31 71-33-24.5-10.4L86 140.9z"/><path class="st5" d="M86 141l-.4-.2L14 110.6V92.9h2v16.3l70 29.6 71-29.6v-47l5-2V44.5L88 10 11 43.6v16.6l5 2v8.7h-2v-7.3l-5-2V42.3L88 7.8l.4.2L164 43.3v18.3l-5 2v47l-.6.2zM2 46.9H0V31.3L68.6 0l.8 1.8L2 32.6z"/><path class="st5" d="M86 75l-.4-.2-76-31 .8-1.8L86 72.8 161.6 43l.8 1.8z"/><path class="st5" d="M70 133.1h-2v-66l.6-.2 77.6-31.6.8 1.9-77 31.3zm-44-18.2h-2v-68l.6-.3 77.6-31.5.8 1.8-77 31.3z"/><path class="st5" d="M87 91l-18.3-5.3.6-2L87 88.9 162.6 60l.8 1.8z"/><path transform="rotate(-66.573 17.498 64.157)" class="st5" d="M16.5 56h2v16.3h-2z"/><path class="st5" d="M166 66.9h2v30h-2zm-152 7h2v6h-2zm0 9h2v6h-2zm71-9h2v66h-2zm-36.9 32.3l-4.6-1.5.3-8.9-6.9 3.9-3.1-3.9 6.7-3.8-9.5-3.2.1-4.5 9.1 3-6-7.6 3.7-2.1 6.1 7.7.3-8.5 4.6 1.5-.3 8.9 6.9-3.9 3.1 3.9-6.7 3.8 9.5 3.1-.1 4.5-9.1-3 6 7.6-3.7 2.1-6.1-7.7-.3 8.6zm-2.6-3l.7.2.3-11.4 8.5 10.7.2-.1-8.6-10.9L59.4 96v-.3L47 91.6l8.6-4.9-.5-.7-8.5 4.8.3-11-.7-.2-.3 11.4-8.5-10.7-.2.1 8.6 10.9L33 87.1v.3l12.4 4.1-8.6 4.9.6.7 8.5-4.8-.4 10.9z"/></svg>