<svg id="Слой_1" xmlns="http://www.w3.org/2000/svg" viewBox="0 0 127 218"><style>.st5{fill:#004884}</style><path fill="#4ca9f6" d="M109 180.3l18 2.7V34l-12-2V10L55 0v16.2l40.5 6.3v26l14 3z"/><path class="st5" d="M2 102H0V39.5l12.4-10.3 1.2 1.6L2 40.5z"/><path class="st5" d="M101.3 208.1l-.4-.1L10 194.9V165h2v28.1l88.7 12.8 8.3-6.4V52.9L20.2 40 12 44.6V142h-2V43.4l9.8-5.4h.3L111 51.1v149.4z"/><path class="st5" d="M10 146h2v5h-2zm0 10h2v5h-2zm92 51h-2V58.9L10.8 45l.4-2L102 57.1z"/><path transform="rotate(-33.688 105.501 54.999)" class="st5" d="M100.1 54h10.8v2h-10.8z"/><path transform="rotate(-70.288 55.997 98.123)" class="st5" d="M55 50.3h2v95.6h-2z"/><path transform="rotate(-70.288 55.996 147.122)" class="st5" d="M55 99.3h2v95.6h-2z"/><path transform="rotate(-81.431 62.503 211.508)" class="st5" d="M61.5 174.6h2v73.8h-2z"/><path class="st5" d="M97 50h-2V27.1c0-2.5-1.8-4.5-4.2-4.9l-49.7-7.1c-1.5-.2-2.9.2-4.1 1.1s-1.8 2.3-1.8 3.8v21h-2V20c0-2.1.9-4 2.5-5.3 1.6-1.3 3.6-1.9 5.7-1.6l49.7 7.1c3.4.6 5.9 3.5 5.9 6.9V50z"/><path d="M41 112.2c0-3.5 2.8-6.3 6.5-6.3s6.5 2.8 6.5 6.3-2.7 6.3-6.5 6.3-6.5-2.8-6.5-6.3zm21.7-2.6l1.4.8L44 133l-1.4-.8 20.1-22.6zm-10.9 2.6c0-2.5-1.8-4.4-4.4-4.4-2.5 0-4.4 1.9-4.4 4.4 0 2.5 1.8 4.4 4.4 4.4 2.6 0 4.4-1.9 4.4-4.4zm1.1 18c0-3.5 2.8-6.3 6.5-6.3s6.5 2.8 6.5 6.3-2.8 6.3-6.5 6.3-6.5-2.8-6.5-6.3zm10.9 0c0-2.5-1.8-4.4-4.4-4.4-2.5 0-4.4 1.9-4.4 4.4s1.8 4.4 4.4 4.4c2.6-.1 4.4-2 4.4-4.4z" fill="#004884" stroke="#004884" stroke-miterlimit="10"/><path class="st5" d="M74.6 38.6h-.4l-21.8-3.2c-1.6-.2-2.8-1.8-2.5-3.4l.1-1c.2-1.6 1.8-2.8 3.4-2.5l6.7 1c.9-1.6 2.7-2.6 4.6-2.3 1.9.3 3.4 1.8 3.8 3.6l6.7 1c1.6.2 2.8 1.8 2.5 3.4l-.1 1c-.1.8-.5 1.5-1.2 2-.6.2-1.2.4-1.8.4zM53 30.4c-.5 0-.9.4-1 .9l-.1 1c-.1.5.3 1.1.8 1.1l21.8 3.2c.3 0 .5 0 .7-.2.2-.2.4-.4.4-.7l.1-1 1 .1-1-.1c.1-.5-.3-1.1-.8-1.1l-8.3-1.2v-.9c0-1.2-.9-2.3-2.1-2.5-1.2-.2-2.4.6-2.8 1.8l-.2.8-8.3-1.2H53z"/></svg>