<svg id="Слой_1" xmlns="http://www.w3.org/2000/svg" viewBox="0 0 121 188.6"><style>.st5{fill:#004884}</style><path d="M121 22.2v132.9c0 3.4-1.6 6.7-4.3 8.8l-1 .8c-2.2 1.7-5 2.5-7.7 2.3V35.2c0-5.5-4.1-10.2-9.5-11L22 13.2v-2c0-2 .5-4 1.5-5.6 1-1.7 2.4-3.1 4.2-4.1 2.1-1.2 4.6-1.6 7-1.3l76.8 11.1c5.4.7 9.5 5.4 9.5 10.9z" fill="#4ca9f6"/><path class="st5" d="M95.9 181c-.6 0-1.1 0-1.7-.1L18.4 170c-5.9-.9-10.4-6-10.4-12v-19.4h2V158c0 5 3.7 9.3 8.7 10l75.8 10.9c2.7.4 5.5-.3 7.7-2l1-.8c2.5-1.9 3.9-4.8 3.9-8V35.2c0-5-3.7-9.3-8.7-10L24.9 14.6c-1.9-.3-13 1.8-14.9 11.1v89.9H8V25.4c2-10.2 13.8-13.3 17.1-12.8l73.5 10.6c5.9.9 10.4 6 10.4 12v132.9c0 3.8-1.7 7.3-4.7 9.6l-1 .8c-2.1 1.6-4.7 2.5-7.4 2.5z"/><path class="st5" d="M8 119.6h2v5H8zm0 10h2v5H8zm84 50.9c-.4 0-.8 0-1.1-.1l-6.2-.9.3-2 6.2.9c1.7.2 3.5-.3 4.8-1.4 1.3-1.1 2.1-2.8 2.1-4.5V39.3c0-4-2.8-7.3-6.8-7.9l-74.4-9.8c-1.7-.2-3.4.3-4.7 1.4-1.3 1.1-2 2.8-2 4.5v5H8v-5c0-2.3 1-4.5 2.7-6 1.7-1.5 4-2.2 6.3-1.9l74.5 9.8c4.9.8 8.5 4.9 8.5 9.9v133.2c0 2.3-1 4.5-2.8 6-1.4 1.3-3.3 2-5.2 2z"/><path transform="rotate(-33.688 101.5 31.574)" class="st5" d="M96.1 30.6h10.8v2H96.1z"/><path class="st5" d="M74.2 117.1c-2.1 0-4.2-.6-6.2-1.9-2.8-1.8-4.9-4.7-5.9-8.1-1-3.4-.8-7 .6-10 1.4-3.1 3.8-5.3 6.9-6.2 3-.9 6.3-.4 9.1 1.5 2.8 1.8 4.9 4.7 5.9 8.1 1 3.4.8 7-.6 10-1.4 3.1-3.8 5.3-6.9 6.2-.9.2-1.9.4-2.9.4zm-1.7-24.6c-.8 0-1.6.1-2.4.3-2.5.7-4.5 2.5-5.6 5.1-1.2 2.6-1.3 5.7-.5 8.6.9 2.9 2.7 5.4 5.1 7 2.4 1.5 5 1.9 7.5 1.2s4.5-2.5 5.6-5.1c1.2-2.6 1.3-5.7.5-8.6-.9-2.9-2.7-5.4-5.1-7-1.6-1-3.4-1.5-5.1-1.5zm1.7 68.6c-2.1 0-4.2-.6-6.2-1.9-2.8-1.8-4.9-4.7-5.9-8.1-1-3.4-.8-7 .6-10 1.4-3.1 3.8-5.3 6.9-6.2 3-.9 6.3-.4 9.1 1.5 2.8 1.8 4.9 4.7 5.9 8.1 1 3.4.8 7-.6 10-1.4 3.1-3.8 5.3-6.9 6.2-.9.2-1.9.4-2.9.4zm-1.7-24.6c-.8 0-1.6.1-2.4.3-2.5.7-4.5 2.5-5.6 5.1-1.2 2.6-1.3 5.7-.5 8.6.9 2.9 2.7 5.4 5.1 7 2.4 1.5 5 1.9 7.5 1.2s4.5-2.5 5.6-5.1c1.2-2.6 1.3-5.7.5-8.6-.9-2.9-2.7-5.4-5.1-7-1.6-1-3.4-1.5-5.1-1.5zM24.7 90.4l-1.7-.9c.8-1.5 1.8-2.8 3.1-3.8l1.2 1.6c-1 .8-1.9 1.9-2.6 3.1z"/><path class="st5" d="M34.2 110.1c-2.1 0-4.2-.6-6.2-1.9-2.8-1.8-4.9-4.7-5.9-8.1-.7-2.5-.8-5.1-.3-7.6l1.9.5c-.5 2.1-.4 4.4.2 6.5.9 2.9 2.7 5.4 5.1 7 2.4 1.5 5 1.9 7.5 1.2s4.5-2.5 5.6-5.1c1.2-2.6 1.3-5.7.5-8.6-.9-2.9-2.7-5.4-5.1-7-2.4-1.5-5-1.9-7.5-1.2l-.6-1.9c3-.9 6.3-.4 9.1 1.5 2.8 1.8 4.9 4.7 5.9 8.1 1 3.4.8 7-.6 10-1.4 3.1-3.8 5.3-6.9 6.2-.7.2-1.7.4-2.7.4zm40-39c-2.1 0-4.2-.6-6.2-1.9-2.8-1.8-4.9-4.7-5.9-8.1-1-3.4-.8-7 .6-10 1.4-3.1 3.8-5.3 6.9-6.2 3-.9 6.3-.4 9.1 1.5 2.8 1.8 4.9 4.7 5.9 8.1 1 3.4.8 7-.6 10-1.4 3.1-3.8 5.3-6.9 6.2-.9.2-1.9.4-2.9.4zm-1.7-24.6c-.8 0-1.6.1-2.4.3-2.5.7-4.5 2.5-5.6 5.1-1.2 2.6-1.3 5.7-.5 8.6.9 2.9 2.7 5.4 5.1 7 2.4 1.5 5 1.9 7.5 1.2s4.5-2.5 5.6-5.1c1.2-2.6 1.3-5.7.5-8.6-.9-2.9-2.7-5.4-5.1-7-1.6-1-3.4-1.5-5.1-1.5zM34.2 64.1c-2.1 0-4.2-.6-6.2-1.9-2.8-1.8-4.9-4.7-5.9-8.1-1-3.4-.8-7 .6-10 1.4-3.1 3.8-5.3 6.9-6.2 3-.9 6.3-.4 9.1 1.5 2.8 1.8 4.9 4.7 5.9 8.1 1 3.4.8 7-.6 10-1.4 3.1-3.8 5.3-6.9 6.2-.9.2-1.9.4-2.9.4zm-1.7-24.6c-.8 0-1.6.1-2.4.3-2.5.7-4.5 2.5-5.6 5.1-1.2 2.6-1.3 5.7-.5 8.6.9 2.9 2.7 5.4 5.1 7 2.4 1.5 5 1.9 7.5 1.2s4.5-2.5 5.6-5.1c1.2-2.6 1.3-5.7.5-8.6-.9-2.9-2.7-5.4-5.1-7-1.6-1-3.4-1.5-5.1-1.5zm1.7 114.6c-2.1 0-4.2-.6-6.2-1.9-2.8-1.8-4.9-4.7-5.9-8.1-1-3.4-.8-7 .6-10 1.4-3.1 3.8-5.3 6.9-6.2 3-.9 6.3-.4 9.1 1.5 2.8 1.8 4.9 4.7 5.9 8.1 1 3.4.8 7-.6 10-1.4 3.1-3.8 5.3-6.9 6.2-.9.2-1.9.4-2.9.4zm-1.7-24.6c-.8 0-1.6.1-2.4.3-2.5.7-4.5 2.5-5.6 5.1-1.2 2.6-1.3 5.7-.5 8.6.9 2.9 2.7 5.4 5.1 7 2.4 1.5 5 1.9 7.5 1.2s4.5-2.5 5.6-5.1c1.2-2.6 1.3-5.7.5-8.6-.9-2.9-2.7-5.4-5.1-7-1.6-1-3.4-1.5-5.1-1.5zM0 34.6h2v51H0z"/><path transform="rotate(-81.871 65.002 183.584)" class="st5" d="M64 155.3h2v56.6h-2z"/></svg>