<svg id="Слой_1" xmlns="http://www.w3.org/2000/svg" viewBox="0 0 76 213.9"><style>.st5{fill:#004884}</style><path d="M65 203.9c0 5.5-11.6 10-26 10s-26-4.5-26-10c0-2.5 2.3-4.7 6.1-6.4C23 199 30 199.9 38 199.9c8.8 0 16.4-1.2 19.9-2.9 4.4 1.8 7.1 4.2 7.1 6.9z" fill="#4ca9f6"/><path class="st5" d="M38 120.6c-14.6 0-26-5.1-26-11.7s11.4-11.7 26-11.7 26 5.1 26 11.7-11.4 11.7-26 11.7zm0-21.5c-13 0-24 4.4-24 9.7s11 9.7 24 9.7 24-4.4 24-9.7-11-9.7-24-9.7zM38 201c-15.1 0-27-5.3-27-12.1h2c0 5.5 11.4 10.1 25 10.1s25-4.6 25-10.1h2c0 6.8-11.9 12.1-27 12.1zM38 9.7c-5.7 0-10-2.1-10-4.9S32.3 0 38 0s10 2.1 10 4.9-4.3 4.8-10 4.8zM38 2c-4.9 0-8 1.7-8 2.9s3.1 2.9 8 2.9 8-1.7 8-2.9S42.9 2 38 2z"/><path class="st5" d="M38 32.7c-5.7 0-10-2.1-10-4.9v-23h2c0 1.2 3.1 2.9 8 2.9s8-1.7 8-2.9h2v23c0 2.8-4.3 4.9-10 4.9zM30 7.8v20c0 1.2 3.1 2.9 8 2.9s8-1.7 8-2.9v-20c-1.8 1.2-4.7 1.9-8 1.9s-6.2-.7-8-1.9z"/><path class="st5" d="M38 63.7c-5 0-9-1.6-9.9-4-.1-.3-.1-.6-.1-.8v-31h2c0 1.2 3.1 2.9 8 2.9s8-1.7 8-2.9h2v31c0 .3 0 .6-.1.9-.9 2.3-4.9 3.9-9.9 3.9zm-8-32.9v28.3c.4 1.2 3.6 2.6 8 2.6s7.5-1.4 8-2.6V30.9c-1.8 1.2-4.7 1.9-8 1.9s-6.2-.8-8-2zm33 118.1h2v4.8h-2zm0 8h2v4.8h-2z"/><path class="st5" d="M13 188.9h-2v-105c0-7.2 2.8-14 7.9-19.1 2.8-2.8 6.2-4.9 9.8-6.3l.7 1.9c-3.4 1.2-6.5 3.2-9.1 5.8-4.7 4.7-7.3 11-7.3 17.7v105zm50-23.8h2v23.8h-2zm2-20h-2V83.9c0-10.5-6.6-19.9-16.4-23.5l.7-1.9C57.9 62.4 65 72.6 65 83.9v61.2zM0 120.9h2v61H0z"/><path class="st5" d="M76 150.9h-2V69c-2.9-13.2-15.2-17.1-15.3-17.2l.6-1.9c.6.2 13.6 4.3 16.7 18.7v82.3z"/></svg>