<svg id="Слой_1" xmlns="http://www.w3.org/2000/svg" viewBox="0 0 141.9 158.6"><style>.st0{fill:#60abf5}.st1{fill:#4ca9f6}.st2{fill:#004884}.st3,.st4,.st5{fill:#004884;stroke:#004884;stroke-miterlimit:10}.st4,.st5{fill:none;stroke:#fff;stroke-width:1.4173}.st5{stroke-width:2.8346}.st6{fill:#fff}.st7,.st8,.st9{fill:none;stroke:#fff;stroke-width:1.1339;stroke-miterlimit:10}.st8,.st9{stroke:#2c3967;stroke-width:2.126}.st9{stroke-width:1.1339}.st10{opacity:.6;fill:#fff}.st11{fill:#2c3967}.st12{fill:#001438}.st13{fill:#b6203d}.st14{fill:#9b9b9a}</style><path class="st1" d="M23.9 127l-9 10.6 102 21 25-54h-13.5l-18.5 40z"/><path class="st2" d="M110.4 145.7l-105-21.4L62.6 14.9l22 23-1.5 1.4-20-21L8.4 122.9l100.9 20.5 24.4-52.6-33.5-33.5 1.4-1.4 34.5 34.5z"/><path transform="rotate(-60.705 12.372 89.08)" class="st2" d="M-11.1 88.1h47v2h-47z"/><path class="st2" d="M111.2 49.3L62.1 3.2 47.7 27.1l-1.7-1L61.7 0l50.9 47.8z"/><path transform="rotate(-20.166 86.364 80.578)" class="st2" d="M85.4 12.4h2v136.4h-2z"/><path transform="rotate(-45.001 88.372 44.08)" class="st2" d="M87.4 40.5h2v7.1h-2z"/><path transform="rotate(-45.001 95.372 51.08)" class="st2" d="M94.4 47.5h2v7.1h-2z"/><path transform="matrix(.08886 -.996 .996 .08886 9.61 101.661)" class="st2" d="M32.3 44.6h56.2v2H32.3z"/><path class="st2" d="M71.9 107.8l-31.2-6.5 6.4-30.9 24.8 4.3v33.1zm-28.8-8l26.8 5.5V76.4l-21.2-3.7-5.6 27.1z"/></svg>