<svg id="Слой_1" xmlns="http://www.w3.org/2000/svg" viewBox="0 0 167 160.9"><style>.st0{fill:#60abf5}.st1{fill:#4ca9f6}.st2{fill:#004884}.st3,.st4,.st5{fill:#004884;stroke:#004884;stroke-miterlimit:10}.st4,.st5{fill:none;stroke:#fff;stroke-width:1.4173}.st5{stroke-width:2.8346}.st6{fill:#fff}.st7,.st8,.st9{fill:none;stroke:#fff;stroke-width:1.1339;stroke-miterlimit:10}.st8,.st9{stroke:#2c3967;stroke-width:2.126}.st9{stroke-width:1.1339}.st10{opacity:.6;fill:#fff}.st11{fill:#2c3967}.st12{fill:#001438}.st13{fill:#b6203d}.st14{fill:#9b9b9a}</style><path class="st1" d="M40.2 117.5L15 129.9l71 31 71-33-24.5-10.4L86 136.9z"/><path class="st2" d="M86 137l-.4-.2L14 106.6V88.9h2v16.3l70 29.6 71-29.6v-47l5-2V40.5L88 6 11 39.6v16.6l5 2v8.7h-2v-7.3l-5-2V38.3L88 3.8l.4.2L164 39.3v18.3l-5 2v47l-.6.2z"/><path class="st2" d="M2 46.9H0V31.3L68.6 0l.8 1.8L2 32.6z"/><path class="st2" d="M86 71l-.4-.2-76-31 .8-1.8L86 68.8 161.6 39l.8 1.8zm79-3.1h2v30h-2zm-151 2h2v6h-2zm0 9h2v6h-2z"/><path class="st2" d="M85 69.9h2v66h-2z"/><path class="st2" d="M86 87.5L9.6 57.8l.8-1.8L86 85.3 162.6 56l.8 1.8z"/></svg>