<svg id="Слой_1" xmlns="http://www.w3.org/2000/svg" viewBox="0 0 89 211"><style>.st0{fill:#60abf5}.st1{fill:#4ca9f6}.st2{fill:#004884}.st3,.st4,.st5{fill:#004884;stroke:#004884;stroke-miterlimit:10}.st4,.st5{fill:none;stroke:#fff;stroke-width:1.4173}.st5{stroke-width:2.8346}.st6{fill:#fff}.st7,.st8,.st9{fill:none;stroke:#fff;stroke-width:1.1339;stroke-miterlimit:10}.st8,.st9{stroke:#2c3967;stroke-width:2.126}.st9{stroke-width:1.1339}.st10{opacity:.6;fill:#fff}.st11{fill:#2c3967}.st12{fill:#001438}.st13{fill:#b6203d}.st14{fill:#9b9b9a}</style><path class="st1" d="M81 201c0 5.5-15.2 10-34 10s-34-4.5-34-10c0-3.8 7.1-7 17.5-8.8 1.9 2.2 8.5 3.8 16.5 3.8s14.6-1.6 16.5-3.8C74 194 81 197.2 81 201z"/><path transform="rotate(-85.575 70.428 143.753) scale(.99998)" class="st2" d="M67.4 142.8h6v2h-6z"/><path transform="matrix(.08983 -.996 .996 .08983 -66.572 191.144)" class="st2" d="M68.3 131h6v2h-6z"/><path class="st2" d="M73 123.1l-2-.2 8-106 .7.1.4-1 1 .3zm-25 74.5c-9.4 0-16.9-3.5-17.4-3.7l-.6-.3v-27.1l-6-4L12 16.3l.8-.2c.2 0 .3-.1.4-.1l.2 1 .7-.1 12 144.5 6 4v26.9c3 1.2 17.3 6.5 30 0l1-26.9 5-4 .7-9.4 2 .2-.8 10.3-5 4-1 27.1-.5.3c-5.2 2.8-10.6 3.7-15.5 3.7z"/><path class="st2" d="M8 96.1L0 9.8l.2-.3C4.4 2.1 25.1.1 25.9 0l.2 2c-5.6.5-20.6 3-24 8.2l8 85.7-2.1.2z"/><path transform="rotate(-86.08 85.525 92.495) scale(1.00004)" class="st2" d="M48.9 91.5h73.2v2H48.9z"/><path class="st2" d="M50.1 169.2c-9.6 0-18.7-2.1-19.3-2.3l.5-1.9c.2 0 20.8 4.9 32.4 0l.8 1.8c-4.3 1.9-9.4 2.4-14.4 2.4zM46.5 24c-14.4 0-31.2-2-34.1-6.5-.2-.5-.4-1-.4-1.5 0-5.9 20.6-8 34.5-8S81 10.1 81 16c0 .5-.1 1-.4 1.4C77.8 21.9 61 24 46.5 24zm0-14C26.7 10 14 13.5 14 16c0 .1 0 .2.1.4 1.7 2.7 14.5 5.6 32.4 5.6s30.7-2.9 32.4-5.6c.1-.2.1-.3.1-.4 0-2.5-12.6-6-32.5-6zm-7 106.9c-.8 0-1.4-.4-1.9-1.1-.7-1.1-1-2.4-1.3-3.6-.6-3-.8-5.9-.9-9.8v-.7c.1-1 .2-2.5.3-4v-.2c-1.3-2.8-2.1-5.3-2.6-7.8-.3-1.7-.6-3.5-.2-5.4.8-3.4 3.1-5.2 6.4-5 1.3.1 2.6.3 3.8.5l.5.1c1.6.3 3 .5 4.5.3 1.2-.2 2.4-.4 3.5-.6 1.3-.2 2.7-.5 4.1-.3 2.4.3 4 1.7 4.9 4.3.5 1.5.4 3 .2 4.3-.4 3-1.3 6-2.8 9.4v.5c.3 2.7.4 5.5.2 8.5-.1 2-.3 4.4-1 6.8-.3.9-.6 1.7-1 2.4-.4.8-1.1 1.2-1.8 1.3-.8 0-1.5-.4-2.1-1.1-.7-.9-.9-2-1-2.8-.1-1-.3-2-.4-3.1-.1-.9-.2-1.9-.4-2.8-.2-1.5-.5-2.7-1-3.6-.6-1.1-1.4-1.6-2.6-1.6-1.2 0-2 .5-2.6 1.6-.2.3-.3.6-.5 1-.5 1.3-.7 2.7-.9 4.2l-.1.5c-.2 1.6-.5 3.4-.8 5.1-.1.7-.5 1.3-.8 1.7-.3.6-1 1-1.7 1zm-2-14.5c.1 3.7.2 6.6.8 9.4.2 1.1.5 2.1 1 2.9.1.2.2.2.2.2s.1 0 .2-.2c.2-.3.4-.7.4-.9.3-1.7.5-3.4.7-5l.1-.5c.2-1.5.4-3.1 1-4.6.2-.4.4-.9.6-1.3 1-1.7 2.5-2.6 4.4-2.6 1.9 0 3.4.9 4.4 2.7.8 1.5 1.1 3.1 1.3 4.3.1.9.2 1.9.4 2.8.1 1 .2 2 .4 3 .1.6.2 1.4.6 1.9.1.2.3.2.3.3l.2-.2c.3-.6.6-1.3.8-2 .6-2.2.8-4.5.9-6.4.2-2.9.1-5.6-.2-8.2-.1-.6 0-1.1.3-1.6 1.4-3.2 2.3-6.1 2.6-8.8.1-1.1.2-2.3-.2-3.5-.6-1.8-1.6-2.7-3.2-2.9-1.2-.1-2.4 0-3.5.3l-3.6.6c-1.8.3-3.5 0-5.1-.3l-.5-.1c-1.2-.2-2.4-.4-3.6-.5-2.9-.2-3.9 1.8-4.3 3.4-.3 1.5-.1 3.1.2 4.6.4 2.3 1.2 4.7 2.4 7.4.2.4.2.8.2 1.1-.1 1.5-.2 3-.3 4.1l.1.6z"/></svg>