<svg id="Слой_1" xmlns="http://www.w3.org/2000/svg" viewBox="0 0 126 196"><style>.st0{fill:#60abf5}.st1{fill:#4ca9f6}.st2{fill:#004884}.st3,.st4,.st5{fill:#004884;stroke:#004884;stroke-miterlimit:10}.st4,.st5{fill:none;stroke:#fff;stroke-width:1.4173}.st5{stroke-width:2.8346}.st6{fill:#fff}.st7,.st8,.st9{fill:none;stroke:#fff;stroke-width:1.1339;stroke-miterlimit:10}.st8,.st9{stroke:#2c3967;stroke-width:2.126}.st9{stroke-width:1.1339}.st10{opacity:.6;fill:#fff}.st11{fill:#2c3967}.st12{fill:#001438}.st13{fill:#b6203d}.st14{fill:#9b9b9a}</style><path class="st1" d="M34.3 18.8V0L126 14v145l-14-3.3V31z"/><path class="st2" d="M103.3 187.1l-.4-.1L12 173.9V144h2v28.1l88.7 12.8 8.3-6.4V31.9L22.2 19 14 23.6V121h-2V22.4l9.8-5.4h.3L113 30.1v149.4z"/><path class="st2" d="M12 125h2v5h-2zm0 10h2v5h-2zm92 51h-2V37.9L12.8 24l.4-2L104 36.1z"/><path transform="rotate(-33.688 107.501 33.999)" class="st2" d="M102.1 33h10.8v2h-10.8z"/><path class="st2" d="M0 20h2v46H0zm78.8 176L0 183.9V107h2v75.1L79.2 194zm24.3-69.9L12.6 90.3l.8-1.9 89.5 35.5 8.5-5.7 1.2 1.6z"/><path class="st2" d="M70.4 54h2v58.5h-2zM70 43h2v7h-2zM39 27.2h2V100h-2z"/><path transform="rotate(-80.538 53 60)" class="st2" d="M52 29.6h2v60.8h-2z"/><path transform="rotate(-81.871 89.503 66.504)" class="st2" d="M88.5 63h2v7.1h-2z"/><path transform="rotate(-80.538 63 86)" class="st2" d="M62 55.6h2v60.8h-2z"/><path transform="rotate(-81.871 26.5 79.504)" class="st2" d="M25.5 76h2v7.1h-2z"/></svg>